{"title":"The.Cabin.in.the.Woods.2011.BRRIP.720P.H264-ZEKTORM","uid":7561244,"size":2046191445,"categoryP":"video","categoryS":"hd___movies","magnet":"?xt=urn:btih:82c834e6bd5b3cb1ce3c7394b2cacfb973a7d81f&amp;dn=The.Cabin.in.the.Woods.2011.BRRIP.720P.H264-ZEKTORM&amp;tr=udp%3A%2F%2Ftracker.openbittorrent.com%3A80&amp;tr=udp%3A%2F%2Fopen.demonii.com%3A1337&amp;tr=udp%3A%2F%2Ftracker.coppersurfer.tk%3A6969&amp;tr=udp%3A%2F%2Fexodus.desync.com%3A6969","seeders":0,"leechers":0,"uploader":"blowley","files":3,"time":1345744739,"description":"Title                            : The Cabin in the Woods\nYear                             : 2011\nGenre                            : Horror | Thriller\niMDB URL                         : http://www.imdb.com/title/tt1259521/\n\nComplete name                    : The.Cabin.in.the.Woods.2011.BRRIP.720P.H264-ZEKTORM.mp4\nFormat                           : MPEG-4\nFormat profile                   : Base Media\nCodec ID                         : isom\nFile size                        : 1.91 GiB\nDuration                         : 1h 35mn\nSubtitles                        : English (Format: srt)\n\nVideo\nID                               : 1\nFormat                           : AVC\nFormat/Info                      : Advanced Video Codec\nFormat profile                   : &lt;a class=&quot;__cf_email__&quot; href=&quot;/cdn-cgi/l/email-protection&quot; data-cfemail=&quot;c189a8a6a9818df5eff1&quot;&gt;[email&amp;#160;protected]&lt;/a&gt;&lt;script data-cfhash='f9e31' type=&quot;text/javascript&quot;&gt;\n/* &lt;![CDATA[ */!function(){try{var t=&quot;currentScript&quot;in document?document.currentScript:function(){for(var t=document.getElementsByTagName(&quot;script&quot;),e=t.length;e--;)if(t[e].getAttribute(&quot;data-cfhash&quot;))return t[e]}();if(t&amp;&amp;t.previousSibling){var e,r,n,i,c=t.previousSibling,a=c.getAttribute(&quot;data-cfemail&quot;);if(a){for(e=&quot;&quot;,r=parseInt(a.substr(0,2),16),n=2;a.length-n;n+=2)i=parseInt(a.substr(n,2),16)^r,e+=String.fromCharCode(i);e=document.createTextNode(e),c.parentNode.replaceChild(e,c)}t.parentNode.removeChild(t);}}catch(u){}}()/* ]]&gt; */&lt;/script&gt;\nFormat settings, CABAC           : Yes\nFormat settings, ReFrames        : 12 frames\nCodec ID                         : avc1\nCodec ID/Info                    : Advanced Video Coding\nDuration                         : 1h 35mn\nBit rate mode                    : Variable\nBit rate                         : 2683 Kbps\nWidth                            : 1280 pixels\nHeight                           : 528 pixels\nDisplay aspect ratio             : 2.424\nFrame rate mode                  : Constant\nFrame rate                       : 23.976 fps\nResolution                       : 24 bits\nColorimetry                      : 4:2:0\nScan type                        : Progressive\nBits/(Pixel*Frame)               : 0.166\nStream size                      : 1.78 GiB (93%)\nTitle                            : Video\nWriting library                  : x264\n\nAudio\nID                               : 2\nFormat                           : AAC\nFormat/Info                      : Advanced Audio Codec\nFormat version                   : Version 4\nFormat profile                   : LC\nFormat settings, SBR             : No\nCodec ID                         : 40\nDuration                         : 1h 35mn\nBit rate mode                    : Variable\nBit rate                         : 184 Kbps\nMaximum bit rate                 : 231 Kbps\nChannel(s)                       : 6 channels\nChannel positions                : Front: L C R, Rear: L R, LFE\nSampling rate                    : 48.0 KHz\nResolution                       : 16 bits\nStream size                      : 125 MiB (6%)\nLanguage                         : English\n\n\nScreenshots:\n\n[img]http://img267.imageshack.us/img267/7987/snaptcitw1.png[/img]\n\n[img]http://img214.imageshack.us/img214/3039/snaptcitw2.png[/img]\n","torrent":{"xt":"urn:btih:82c834e6bd5b3cb1ce3c7394b2cacfb973a7d81f","amp;dn":"The.Cabin.in.the.Woods.2011.BRRIP.720P.H264-ZEKTORM","amp;tr":["udp%3A%2F%2Ftracker.openbittorrent.com%3A80","udp%3A%2F%2Fopen.demonii.com%3A1337","udp%3A%2F%2Ftracker.coppersurfer.tk%3A6969","udp%3A%2F%2Fexodus.desync.com%3A6969"],"infoHash":"82c834e6bd5b3cb1ce3c7394b2cacfb973a7d81f","infoHashBuffer":{"type":"Buffer","data":[130,200,52,230,189,91,60,177,206,60,115,148,178,202,207,185,115,167,216,31]},"announce":[],"urlList":[]}}